<svg width="22" height="28" viewBox="0 0 22 28" fill="none" xmlns="http://www.w3.org/2000/svg">
<path d="M16.725 8.3125V5.6H19.3375V25.0875H2.6625V5.6H5.275V8.3125V8.4125H5.375H16.625H16.725V8.3125ZM19.4375 3.525H16.725V2.6875C16.725 2.1637 16.5169 1.66135 16.1465 1.29096C15.7762 0.92058 15.2738 0.7125 14.75 0.7125H7.25C6.7262 0.7125 6.22385 0.92058 5.85346 1.29096C5.48308 1.66135 5.275 2.1637 5.275 2.6875V3.525H2.5625C2.0387 3.525 1.53635 3.73308 1.16596 4.10346C0.79558 4.47385 0.5875 4.9762 0.5875 5.5V25.1875C0.5875 25.7113 0.79558 26.2136 1.16596 26.584C1.53635 26.9544 2.0387 27.1625 2.5625 27.1625H19.4375C19.9613 27.1625 20.4636 26.9544 20.834 26.584C21.2044 26.2136 21.4125 25.7113 21.4125 25.1875V5.5C21.4125 4.9762 21.2044 4.47385 20.834 4.10346C20.4636 3.73308 19.9613 3.525 19.4375 3.525ZM7.35 2.7875H14.65V6.3375H7.35V2.7875Z" fill="#ACABAB" stroke="#ACABAB" stroke-width="0.2"/>
</svg>
