<svg width="24" height="21" viewBox="0 0 24 21" fill="none" xmlns="http://www.w3.org/2000/svg">
<path d="M22.7754 1.27495C22.6302 1.15748 22.4605 1.07404 22.2788 1.03078C22.097 0.987514 21.908 0.985522 21.7254 1.02495L12.0004 3.21245L2.27538 0.999948C2.08991 0.95806 1.89733 0.959035 1.71229 1.0028C1.52726 1.04656 1.35464 1.13196 1.20759 1.2525C1.06054 1.37303 0.942919 1.52553 0.86369 1.69837C0.78446 1.87122 0.745706 2.05987 0.750377 2.24995V17.5C0.743315 17.7889 0.836608 18.0714 1.01438 18.2993C1.19214 18.5272 1.4434 18.6864 1.72538 18.75L11.7254 20.9999H12.2754L22.2754 18.75C22.5574 18.6864 22.8086 18.5272 22.9864 18.2993C23.1641 18.0714 23.2574 17.7889 23.2504 17.5V2.24995C23.2495 2.06219 23.2064 1.87704 23.1241 1.70825C23.0419 1.53946 22.9227 1.39136 22.7754 1.27495ZM3.25038 3.81245L10.7504 5.49995V18.1874L3.25038 16.4999V3.81245ZM20.7504 16.4999L13.2504 18.1874V5.49995L20.7504 3.81245V16.4999Z" fill="#ACABAB"/>
</svg>
