<svg width="28" height="28" viewBox="0 0 28 28" fill="none" xmlns="http://www.w3.org/2000/svg">
<path d="M14 6.5C13.0729 6.5 12.1666 6.77492 11.3958 7.28999C10.6249 7.80506 10.0241 8.53714 9.66932 9.39367C9.31453 10.2502 9.2217 11.1927 9.40257 12.102C9.58344 13.0113 10.0299 13.8465 10.6854 14.5021C11.341 15.1576 12.1762 15.6041 13.0855 15.7849C13.9948 15.9658 14.9373 15.873 15.7938 15.5182C16.6504 15.1634 17.3824 14.5626 17.8975 13.7917C18.4126 13.0209 18.6875 12.1146 18.6875 11.1875C18.6875 9.9443 18.1936 8.75201 17.3146 7.87294C16.4355 6.99386 15.2432 6.5 14 6.5ZM14 14C13.4437 14 12.9 13.835 12.4375 13.526C11.9749 13.217 11.6145 12.7777 11.4016 12.2638C11.1887 11.7499 11.133 11.1844 11.2415 10.6388C11.3501 10.0932 11.6179 9.5921 12.0113 9.19876C12.4046 8.80543 12.9057 8.53756 13.4513 8.42904C13.9969 8.32052 14.5624 8.37622 15.0763 8.58909C15.5902 8.80196 16.0295 9.16245 16.3385 9.62496C16.6476 10.0875 16.8125 10.6312 16.8125 11.1875C16.8118 11.9332 16.5152 12.6481 15.9879 13.1754C15.4606 13.7027 14.7457 13.9993 14 14Z" fill="#ACABAB"/>
<path d="M14.0001 0.775H14C11.3843 0.775 8.82743 1.55063 6.65259 3.00381C4.47775 4.457 2.78267 6.52246 1.7817 8.93901C0.78073 11.3556 0.518831 14.0147 1.02912 16.5801C1.53941 19.1455 2.79897 21.5019 4.64852 23.3515C6.49807 25.201 8.85454 26.4606 11.4199 26.9709C13.9853 27.4812 16.6444 27.2193 19.061 26.2183C21.4775 25.2173 23.543 23.5223 24.9962 21.3474C26.4494 19.1726 27.225 16.6157 27.225 14V13.9999C27.221 10.4937 25.8264 7.13218 23.3471 4.6529C20.8678 2.17362 17.5063 0.779 14.0001 0.775ZM7.83235 19.0303C6.98999 19.8615 6.48705 20.9732 6.41575 22.1494C4.81462 20.6635 3.68398 18.7387 3.1667 16.6132C2.63253 14.4183 2.77763 12.113 3.58279 10.0024C4.38795 7.8918 5.81519 6.07555 7.67552 4.79413C9.53585 3.51272 11.7415 2.82659 14.0005 2.82659C16.2594 2.82659 18.4651 3.51272 20.3254 4.79413C22.1858 6.07555 23.613 7.8918 24.4182 10.0024C25.2233 12.113 25.3684 14.4183 24.8342 16.6132C24.3169 18.7391 23.1859 20.6642 21.5843 22.1502C21.5132 20.9737 21.0102 19.8617 20.1677 19.0303C19.2736 18.1481 18.0687 17.6524 16.8127 17.65H16.8125H11.1875H11.1873C9.93126 17.6524 8.72641 18.1481 7.83235 19.0303ZM14 25.1505C12.0601 25.1505 10.1547 24.64 8.47501 23.6709V22.4376C8.47572 21.7184 8.76175 21.0289 9.2703 20.5203C9.77886 20.0117 10.4684 19.7257 11.1876 19.725H16.8124C17.5316 19.7257 18.2212 20.0117 18.7297 20.5203C19.2383 21.0289 19.5243 21.7184 19.525 22.4376V23.6709C17.8453 24.64 15.9399 25.1505 14 25.1505Z" fill="#ACABAB" stroke="#ACABAB" stroke-width="0.2"/>
</svg>
