<svg width="245" height="50" viewBox="0 0 245 50" fill="none" xmlns="http://www.w3.org/2000/svg">
<path d="M13.4848 42.1179V46.8338V49.0104C14.6594 49.1313 17.0813 49.3732 17.3715 49.3732H19.1853C19.6517 49.3732 20.065 49.425 20.2723 49.3732C20.4796 49.3213 20.9675 49.1929 21.2266 49.0893C21.4339 49.0063 21.7247 48.6229 21.4137 48.2084V44.0975C21.431 43.7002 21.4552 42.2554 21.4137 41.675C21.3619 40.9495 21.1546 40.7705 21.4137 40.5632C21.6728 40.3559 21.932 40.1486 22.0356 39.8377C22.1392 39.5267 22.6575 39.3194 22.813 38.9567C22.9684 38.5939 23.6421 38.3328 23.7458 37.711C23.8494 37.0891 23.4348 36.9356 23.7458 36.6765C24.0567 36.4173 23.7458 25.6899 23.7458 25.068C23.7458 24.4462 23.973 24.1348 23.8693 23.6165C23.7864 23.202 23.7398 22.8396 23.4289 22.8396L23.1352 22.5889L22.3277 22.2219C21.8613 22.3946 20.6364 23.0884 20.6364 22.8396V21.4404V20.7149C20.6364 20.3003 20.5327 20.1448 20.4809 20.1448C20.4394 20.1448 19.9454 19.6611 19.7036 19.4193L19.2446 19.1386L17.7764 19.2854C17.5173 19.7864 17.5166 20.7667 17.4752 20.1448C17.4233 19.3675 17.4233 19.4193 17.216 18.5901C17.0087 17.7609 17.1028 17.8777 16.8955 17.6705C16.7297 17.5046 16.4041 17.4327 16.2832 17.3464L15.7944 17.1567C15.6735 17.1912 15.3505 17.0737 15.0603 17.1566C14.6975 17.2603 14.6249 17.6573 14.5212 17.8128C14.4383 17.9371 14.3485 18.3398 14.3139 18.478V19.4193L13.8993 20.1448H13.5366C13.3638 20.1448 13.1068 19.8728 12.858 19.8728C12.5471 19.8728 12.3097 19.6007 12.0506 19.6526C11.8433 19.694 11.1308 20.7321 11.0962 20.9739V27.8743C11.0962 28.1231 11.3165 30.6131 11.3165 31.8569C11.1783 32.0642 10.9661 32.5202 10.8418 32.6861C10.7174 32.8519 10.5136 32.7552 10.4272 32.6861C10.2199 32.5479 9.72238 32.1886 9.39071 31.8569C8.97613 31.4423 9.07977 31.6496 8.76883 31.3905C8.45789 31.1314 8.35425 30.9241 8.35425 30.5613C8.35425 30.1985 7.47325 30.354 6.85137 30.354C6.64408 30.4058 6.22949 30.7686 6.22949 30.9241V31.8569L6.54043 32.6861L7.47325 33.3598L8.35425 34.1889L9.39071 35.5363C10.0299 36.2619 11.3289 37.7751 11.4118 38.0239C11.4947 38.2726 12.8283 39.3367 13.4848 39.8377V42.1179Z" fill="#EEEAF6" stroke="#C9BFE4" stroke-width="0.518233" stroke-linecap="round"/>
<path d="M22.6213 22.2952C22.8416 22.3449 23.282 23.0864 23.282 25.6542C23.282 28.222 23.282 33.7906 23.282 36.2539C23.282 38.0454 20.7861 39.6876 20.7861 40.3594C20.7861 42.6884 20.7861 47.0029 20.7861 48.869" stroke="#C9BFE4" stroke-width="0.734084"/>
<path d="M13.3716 23.3229C13.3716 20.3866 12.8822 20.4355 12.7109 20.2398L13.2248 20.0195L14.0323 20.5334V22.442C14.0568 24.6443 14.0617 29.1515 13.8855 29.5626C13.7093 29.9737 13.4695 29.7339 13.3716 29.5626V23.3229Z" fill="#C9BFE4"/>
<path d="M16.5951 21.5228C16.5951 17.7722 16.0369 17.7736 15.8672 17.5236L16.4497 17.3033L17.2496 17.9597V20.3976C17.2739 23.2106 17.2787 28.9678 17.1042 29.4928C16.9297 30.0179 16.6921 29.7116 16.5951 29.4928V21.5228Z" fill="#C9BFE4"/>
<path d="M19.7907 22.8834C19.7907 19.7505 19.203 19.7517 19.0244 19.5428L19.6376 19.3589L20.4796 19.9071V21.9435C20.5052 24.2932 20.5103 29.1021 20.3265 29.5407C20.1428 29.9793 19.8927 29.7235 19.7907 29.5407V22.8834Z" fill="#C9BFE4"/>
<path d="M14.1582 29.8877V18.6938C14.1582 16.4136 17.3712 16.4654 17.3712 18.6938C17.3712 19.8132 17.3712 26.6228 17.3712 29.8877" stroke="black" stroke-width="1.03647" stroke-linecap="round"/>
<path d="M14.2104 29.8358C14.2104 26.5709 14.2104 22.3933 14.2104 21.2739C14.2104 19.2638 10.9973 19.2638 10.9973 21.2739V32.4677C11.0319 32.7133 10.9144 33.0178 10.1682 32.2715C9.4219 31.5252 8.87256 30.8723 8.66528 30.665C6.85143 28.8511 4.51936 31.0795 6.38505 32.9452C8.0434 34.6035 11.6019 38.5076 13.1739 40.2523V43.4135" stroke="black" stroke-width="1.03647" stroke-linecap="round"/>
<path d="M17.4238 29.9394V20.5483C17.4238 18.6419 20.6369 18.5901 20.6369 20.5483C20.6369 21.6677 20.6369 26.4672 20.6369 29.7321" stroke="black" stroke-width="1.03647" stroke-linecap="round"/>
<path d="M20.6363 29.7322V23.8651C20.6363 21.7514 23.8494 21.8551 23.8494 23.8651C23.8494 24.9845 23.8494 32.6862 23.8494 35.951C23.8494 39.3714 21.5173 39.6305 21.5173 40.7188C21.5173 42.6673 21.5173 46.7475 21.5173 48.5441C21.5173 48.855 20.9991 49.4769 19.7553 49.4769C18.5116 49.4769 15.5058 49.4769 14.1584 49.4769C13.8475 49.4769 13.2256 49.2903 13.2256 48.5441C13.2256 47.7978 13.2256 46.5748 13.2256 46.0566" stroke="black" stroke-width="1.03647" stroke-linecap="round"/>
<path d="M46.3199 26.1148V30.8308V33.0073C45.1453 33.1283 42.7234 33.3701 42.4332 33.3701H40.6194C40.153 33.3701 39.7397 33.4219 39.5324 33.3701C39.3251 33.3183 38.8372 33.1898 38.5781 33.0862C38.3708 33.0033 38.08 32.6199 38.391 32.2053V28.0944C38.3737 27.6971 38.3495 26.2524 38.391 25.672C38.4428 24.9464 38.6501 24.7674 38.391 24.5601C38.1318 24.3529 37.8727 24.1456 37.7691 23.8346C37.6654 23.5237 37.1472 23.3164 36.9917 22.9536C36.8363 22.5909 36.1626 22.3298 36.0589 21.7079C35.9553 21.086 36.3699 20.9325 36.0589 20.6734C35.748 20.4143 36.0589 9.68686 36.0589 9.06498C36.0589 8.4431 35.8317 8.13172 35.9354 7.61349C36.0183 7.1989 36.0649 6.83658 36.3758 6.83658L36.6695 6.58584L37.477 6.2188C37.9434 6.39155 39.1683 7.08533 39.1683 6.83658V5.43735V4.71182C39.1683 4.29724 39.272 4.14177 39.3238 4.14177C39.3652 4.14177 39.8593 3.65808 40.1011 3.41624L40.5601 3.13557L42.0283 3.28239C42.2874 3.78335 42.2881 4.76365 42.3295 4.14177C42.3814 3.36442 42.3814 3.41624 42.5887 2.58707C42.7959 1.75789 42.7019 1.8747 42.9092 1.6674C43.075 1.50157 43.4006 1.42968 43.5215 1.34331L44.0103 1.15361C44.1312 1.18816 44.4542 1.07064 44.7444 1.15356C45.1072 1.2572 45.1798 1.65425 45.2835 1.80972C45.3664 1.93409 45.4562 2.33678 45.4908 2.47497V3.41624L45.9053 4.14177H46.2681C46.4409 4.14177 46.6979 3.86973 46.9466 3.86973C47.2576 3.86973 47.495 3.59768 47.7541 3.64951C47.9614 3.69097 48.6739 4.72902 48.7084 4.97086V11.8713C48.7084 12.12 48.4882 14.6101 48.4882 15.8538C48.6264 16.0611 48.8385 16.5172 48.9629 16.683C49.0873 16.8488 49.2911 16.7521 49.3775 16.683C49.5848 16.5448 50.0823 16.1855 50.414 15.8538C50.8286 15.4392 50.7249 15.6465 51.0359 15.3874C51.3468 15.1283 51.4504 14.921 51.4504 14.5582C51.4504 14.1955 52.3314 14.351 52.9533 14.351C53.1606 14.4028 53.5752 14.7655 53.5752 14.921V15.8538L53.2643 16.683L52.3314 17.3567L51.4504 18.1859L50.414 19.5333C49.7748 20.2588 48.4758 21.7721 48.3929 22.0208C48.3099 22.2696 46.9764 23.3337 46.3199 23.8346V26.1148Z" fill="#FCC7B0" stroke="#FCC7B0" stroke-width="0.518233" stroke-linecap="round"/>
<path d="M38.2568 7.09946C38.2568 6.89675 38.4212 6.73242 38.6239 6.73242C38.8266 6.73242 38.9909 6.89675 38.9909 7.09946V13.4126C38.9909 13.6153 38.8266 13.7796 38.6239 13.7796C38.4212 13.7796 38.2568 13.6153 38.2568 13.4126V7.09946Z" fill="#FFA47B"/>
<path d="M37.8164 6.58569C37.8898 6.6591 38.3303 6.51228 38.5505 8.05386" stroke="#FFA47B" stroke-width="0.440451"/>
<path d="M41.4873 3.93565C41.4873 3.73293 41.6516 3.5686 41.8543 3.5686C42.0571 3.5686 42.2214 3.73293 42.2214 3.93565V13.4128C42.2214 13.6155 42.0571 13.7799 41.8543 13.7799C41.6516 13.7799 41.4873 13.6155 41.4873 13.4128V3.93565Z" fill="#FFA47B"/>
<path d="M41.0469 3.35583C41.1203 3.4622 41.5607 3.24947 41.781 5.48318" stroke="#FFA47B" stroke-width="0.440451"/>
<path d="M44.7168 1.92222C44.7168 1.71951 44.8811 1.55518 45.0838 1.55518C45.2866 1.55518 45.4509 1.71951 45.4509 1.92222V13.4129C45.4509 13.6156 45.2866 13.7799 45.0838 13.7799C44.8811 13.7799 44.7168 13.6156 44.7168 13.4129V1.92222Z" fill="#FFA47B"/>
<path d="M44.2764 1.30042C44.3498 1.42776 44.7902 1.17307 45.0105 3.84724" stroke="#FFA47B" stroke-width="0.440451"/>
<path d="M47.9473 4.65476C47.9473 4.45205 48.1116 4.28772 48.3143 4.28772C48.517 4.28772 48.6813 4.45205 48.6813 4.65476V13.4128C48.6813 13.6156 48.517 13.7799 48.3143 13.7799C48.1116 13.7799 47.9473 13.6156 47.9473 13.4128V4.65476Z" fill="#FFA47B"/>
<path d="M47.5078 4.08984C47.5812 4.18872 48.0217 3.99097 48.2419 6.06738" stroke="#FFA47B" stroke-width="0.440451"/>
<path d="M53.5202 15.4765C53.6579 15.3277 53.8901 15.3188 54.0388 15.4565C54.1876 15.5943 54.1965 15.8265 54.0588 15.9752L46.3011 24.3532C46.1633 24.502 45.9311 24.5109 45.7824 24.3732C45.6336 24.2354 45.6247 24.0032 45.7624 23.8545L53.5202 15.4765Z" fill="#FFA47B"/>
<path d="M45.6675 24.1868C45.6692 23.9714 45.8723 23.8145 46.0811 23.8674C46.2285 23.9047 46.3317 24.0373 46.3317 24.1894V32.7942C46.3317 32.9961 46.168 33.1598 45.9661 33.1598C45.7631 33.1598 45.5989 32.9944 45.6005 32.7914L45.6675 24.1868Z" fill="#FFA47B"/>
<path d="M53.6191 14.7219C53.587 14.8647 54.0822 14.9782 52.4377 17.0783" stroke="#FFA47B" stroke-width="0.440451"/>
<path d="M45.6465 13.8846V2.69078C45.6465 0.410568 42.4334 0.462391 42.4334 2.69078C42.4334 3.81017 42.4334 10.6198 42.4334 13.8846" stroke="black" stroke-width="1.03647" stroke-linecap="round"/>
<path d="M45.5943 13.8328C45.5943 10.5679 45.5943 6.39021 45.5943 5.27083C45.5943 3.2608 48.8074 3.2608 48.8074 5.27083V16.4647C48.7728 16.7102 48.8903 17.0147 49.6365 16.2684C50.3828 15.5222 50.9321 14.8692 51.1394 14.6619C52.9532 12.8481 55.2853 15.0765 53.4196 16.9422C51.7613 18.6005 48.2028 22.5045 46.6308 24.2492V27.3604" stroke="black" stroke-width="1.03647" stroke-linecap="round"/>
<path d="M42.3818 13.9365V4.54536C42.3818 2.63897 39.1688 2.58715 39.1688 4.54536C39.1688 5.66474 39.1688 10.4643 39.1688 13.7292" stroke="black" stroke-width="1.03647" stroke-linecap="round"/>
<path d="M39.1688 13.7292V7.86206C39.1688 5.74839 35.9558 5.85203 35.9558 7.86206C35.9558 8.98145 35.9558 16.6831 35.9558 19.948C35.9558 23.3683 38.2878 23.6274 38.2878 24.7157V27.5806M46.6266 25.305C46.6266 25.8232 46.5532 31.6915 46.6266 32.4206C46.7013 33.1631 45.9577 33.4739 45.6467 33.4739C44.2993 33.4739 41.2936 33.4739 40.0498 33.4739C39.4625 33.505 38.2878 33.1963 38.2878 31.7119V30.1499" stroke="black" stroke-width="1.03647" stroke-linecap="round"/>
<path d="M46.9194 17.0098C45.9896 17.0832 44.1299 17.7585 44.1299 19.8727" stroke="black" stroke-width="0.734084"/>
<path d="M7.88606 38.6226C6.59406 38.3732 3.90727 36.955 3.49605 33.2782" stroke="black" stroke-width="0.734084" stroke-linecap="round"/>
<path d="M7.4155 40.9537C6.03368 40.7912 2.81597 39.1283 0.999602 33.7769" stroke="black" stroke-width="0.734084" stroke-linecap="round"/>
<path d="M52.0941 9.87157C53.4067 9.77813 56.3689 10.4525 57.7178 13.8977" stroke="black" stroke-width="0.734084" stroke-linecap="round"/>
<path d="M51.9454 7.49826C53.3222 7.2976 56.8607 8.07102 60.0002 12.77" stroke="black" stroke-width="0.734084" stroke-linecap="round"/>
<path d="M85.985 37C85.1956 37 84.4703 36.808 83.809 36.424C83.169 36.04 82.657 35.5173 82.273 34.856C81.889 34.1947 81.697 33.4693 81.697 32.68V31.144H85.537V32.552C85.537 32.7227 85.5903 32.8613 85.697 32.968C85.8036 33.0747 85.9423 33.128 86.113 33.128H100.257C100.428 33.128 100.566 33.0747 100.673 32.968C100.801 32.8613 100.865 32.7227 100.865 32.552V27.976C100.865 27.8267 100.801 27.6987 100.673 27.592C100.566 27.464 100.428 27.4 100.257 27.4H85.985C85.1956 27.4 84.4703 27.208 83.809 26.824C83.169 26.44 82.657 25.928 82.273 25.288C81.889 24.6267 81.697 23.9013 81.697 23.112V18.28C81.697 17.4907 81.889 16.7653 82.273 16.104C82.657 15.4427 83.169 14.92 83.809 14.536C84.4703 14.152 85.1956 13.96 85.985 13.96H100.417C101.206 13.96 101.921 14.152 102.561 14.536C103.222 14.92 103.745 15.4427 104.129 16.104C104.534 16.7653 104.737 17.4907 104.737 18.28V19.816H100.865V18.408C100.865 18.2373 100.801 18.0987 100.673 17.992C100.566 17.8853 100.428 17.832 100.257 17.832H86.113C85.9423 17.832 85.8036 17.8853 85.697 17.992C85.5903 18.0987 85.537 18.2373 85.537 18.408V22.984C85.537 23.1333 85.5903 23.272 85.697 23.4C85.8036 23.5067 85.9423 23.56 86.113 23.56H100.417C101.206 23.56 101.921 23.752 102.561 24.136C103.222 24.52 103.745 25.0427 104.129 25.704C104.534 26.344 104.737 27.0587 104.737 27.848V32.68C104.737 33.4693 104.534 34.1947 104.129 34.856C103.745 35.5173 103.222 36.04 102.561 36.424C101.921 36.808 101.206 37 100.417 37H85.985ZM116.263 37V18.28C116.263 17.4907 116.455 16.7653 116.839 16.104C117.223 15.4427 117.746 14.92 118.407 14.536C119.069 14.152 119.794 13.96 120.583 13.96H134.983C135.773 13.96 136.487 14.152 137.127 14.536C137.789 14.92 138.311 15.4427 138.695 16.104C139.101 16.7653 139.303 17.4907 139.303 18.28V37H135.431V29.096H120.103V37H116.263ZM120.103 25.256H135.431V18.408C135.431 18.2373 135.367 18.0987 135.239 17.992C135.133 17.8853 135.005 17.832 134.855 17.832H120.679C120.53 17.832 120.391 17.8853 120.263 17.992C120.157 18.0987 120.103 18.2373 120.103 18.408V25.256ZM150.949 37V13.992H169.669C170.459 13.992 171.173 14.1947 171.813 14.6C172.475 14.984 172.997 15.5067 173.381 16.168C173.787 16.808 173.989 17.5227 173.989 18.312V24.648C173.989 25.416 173.787 26.1307 173.381 26.792C172.997 27.4533 172.475 27.976 171.813 28.36C171.173 28.744 170.459 28.936 169.669 28.936L154.789 28.968V37H150.949ZM155.365 25.064H169.541C169.691 25.064 169.819 25.0107 169.925 24.904C170.053 24.7973 170.117 24.6587 170.117 24.488V18.408C170.117 18.2587 170.053 18.1307 169.925 18.024C169.819 17.896 169.691 17.832 169.541 17.832H155.365C155.216 17.832 155.077 17.896 154.949 18.024C154.843 18.1307 154.789 18.2587 154.789 18.408V24.488C154.789 24.6587 154.843 24.7973 154.949 24.904C155.077 25.0107 155.216 25.064 155.365 25.064ZM184.482 37V18.28C184.482 17.4907 184.674 16.7653 185.058 16.104C185.442 15.4427 185.965 14.92 186.626 14.536C187.287 14.152 188.013 13.96 188.802 13.96H203.202C203.991 13.96 204.706 14.152 205.346 14.536C206.007 14.92 206.53 15.4427 206.914 16.104C207.319 16.7653 207.522 17.4907 207.522 18.28V37H203.65V29.096H188.322V37H184.482ZM188.322 25.256H203.65V18.408C203.65 18.2373 203.586 18.0987 203.458 17.992C203.351 17.8853 203.223 17.832 203.074 17.832H188.898C188.749 17.832 188.61 17.8853 188.482 17.992C188.375 18.0987 188.322 18.2373 188.322 18.408V25.256Z" fill="#F44B00"/>
</svg>
